<svg xmlns="http://www.w3.org/2000/svg" xmlns:xlink="http://www.w3.org/1999/xlink" viewBox="1115.58 67.67 625.1 1012.33">
	<path fill="#FEF4EB" d="M1115.58 263.809C1120.13 258.64 1122.71 247.954 1129.9 239.979C1154.88 212.239 1190.09 182.081 1221.91 162.468C1236.53 153.455 1252.75 146.947 1266.82 137.067C1274.27 131.841 1280.46 124.469 1287.05 118.203C1296.78 108.937 1307.3 101.611 1318.94 94.9527C1362.33 70.1439 1417.69 60.319 1466.34 73.6148C1488.88 79.7756 1529.07 99.5669 1540.95 120.496C1562.12 122.552 1583.14 126.001 1603.37 132.768C1627.15 140.726 1730.72 187.426 1739.1 206.518C1743.27 216.02 1738.27 229.03 1734.49 238.003C1729.12 250.771 1722.08 262.941 1714.35 274.412C1701.8 293.02 1659.74 345.624 1639.63 353.794C1640.22 355.407 1640.72 357.025 1641.04 358.713C1645.18 380.585 1646.1 403.885 1648.14 426.048C1649.12 436.588 1651.6 448.652 1651.15 459.162C1651.07 461.124 1650.16 462.74 1649.05 464.318C1649.29 463.141 1649.46 461.976 1649.5 460.775C1649.73 454.251 1646.31 435.971 1642.18 431.395C1642.54 430.077 1642.88 428.966 1642.79 427.576C1642.45 422.593 1640.44 416.847 1639.25 411.978C1634.03 390.621 1626.89 369.841 1621.07 348.656C1615.53 328.455 1588.85 209.711 1578.55 200.77C1576.29 176.991 1551.64 147.385 1533.69 132.533C1512.6 115.08 1479.01 95.8287 1451.9 90.9227C1443.25 89.3572 1434 89.4631 1425.27 90.3109C1386 94.1243 1323.97 121.487 1298.7 152.436C1280.34 174.927 1267.93 205.185 1261.72 233.361C1258.67 247.201 1257.09 260.736 1251.34 273.843C1253.93 282.443 1220.64 401.739 1216.14 420.421C1214.75 426.233 1210.35 453.966 1208.48 456.952C1208.15 457.488 1207.63 457.978 1207.15 458.392C1208.97 449.268 1207.42 435.781 1207.55 426.14C1207.83 405.993 1209.59 385.356 1208.39 365.248C1208.27 363.224 1208 361.789 1207.03 359.99C1205.21 354.97 1191.61 346.101 1187.11 342.384C1170.84 328.962 1154.79 314.982 1140.09 299.833C1132.86 292.381 1126.73 283.602 1121.51 274.661C1119.5 271.228 1118.48 267.384 1115.97 264.273C1115.84 264.115 1115.71 263.963 1115.58 263.809Z"/>
	<path fill="#FEF4EB" d="M1636.7 520.341C1648.05 522.876 1657.7 530.262 1663.89 540.026C1670.19 549.971 1672.75 563.803 1674.61 575.293C1679.83 607.399 1678.91 640.273 1682.42 672.554C1685.3 699.009 1690.82 724.99 1694.83 751.269C1696.6 762.82 1697.48 774.508 1698.69 786.127C1701.65 814.595 1717.52 817.891 1709.85 851.023C1707.16 862.636 1705.46 870.617 1707.87 882.503C1708.79 887.005 1710.15 891.774 1710.04 896.395C1709.63 912.44 1691.65 931.86 1678.58 940.139C1665.45 948.463 1650.73 950.115 1635.57 950.784C1643 959.686 1637.76 979.455 1641.79 990.931C1644.84 999.608 1649.81 1007.76 1653.58 1016.18C1658.84 1027.91 1663.15 1040.13 1669.29 1051.46C1673.94 1060.07 1681.28 1068.55 1684.58 1077.66L1684.36 1080L1445.32 1080L1442.64 1080C1443.09 1079.45 1443.49 1078.88 1443.84 1078.26C1446.15 1074.16 1445.79 1064.59 1446.94 1059.6C1450.24 1045.37 1453.77 1031.21 1454.57 1016.56C1455.17 1005.65 1453.62 995.362 1452.4 984.568C1450.11 964.442 1446.78 942.791 1445.48 922.756C1444.47 907.137 1447.31 882.3 1442.75 868.264C1445.14 862.702 1445.49 857.825 1443.54 852.107C1444.35 852.656 1445.45 853.217 1446.12 853.914C1454.97 849.256 1460.26 834.669 1468.04 827.748C1488.17 809.836 1538.17 784.864 1546.59 760.612C1548.74 754.427 1547.54 750.024 1544.76 744.313C1545.32 743.796 1545.61 743.592 1546.04 743.018C1548.88 739.238 1548.84 731.758 1548.01 727.335C1547.6 724.788 1542.92 720.963 1541.46 718.113C1541.52 716.183 1541.65 714.051 1541.27 712.152C1539.39 702.86 1519.5 675.003 1511.23 670.078C1514.56 667.681 1515.98 665.3 1517.52 661.613C1517.23 660.864 1517.42 661.059 1516.86 660.596C1512.49 656.968 1509.39 652.628 1507.48 647.211C1502.72 633.753 1513.18 637.169 1516.01 629.987C1516.96 627.567 1515.74 623.638 1514.87 621.351C1527.85 614.563 1527.3 603.233 1537.45 595.572C1542.85 591.501 1550.5 591.128 1556.41 587.948C1556.54 587.876 1556.68 587.798 1556.81 587.723C1557.55 587.936 1558.21 588.148 1558.91 588.47C1564.48 591.039 1576.44 599.594 1578.75 605.358C1596.23 603.507 1611.43 595.593 1623.05 582.445C1641.21 561.885 1638.22 544.944 1636.7 520.341Z"/>
	<path fill="#A99AA9" d="M1447.99 871.041C1451.11 870.261 1453.04 869.478 1454.81 866.811C1457.07 868.085 1458.66 868.832 1459.89 871.25L1459.88 873.286C1458.16 874.78 1457.18 875.327 1454.73 875.203C1452.28 875.079 1449.77 872.567 1447.99 871.041Z"/>
	<path fill="#4B4571" d="M1443.54 852.107C1444.35 852.656 1445.45 853.217 1446.12 853.914C1449.52 856.718 1454.92 860.21 1455.2 864.959C1455.24 865.669 1455.12 866.178 1454.81 866.811C1453.04 869.478 1451.11 870.261 1447.99 871.041L1445.7 872.959C1451.04 883.086 1447.55 900.561 1448.53 911.966C1450.44 934.285 1452.22 956.926 1454.67 979.179C1456.39 994.833 1459.78 1010.12 1459.32 1026.01C1458.93 1039.59 1454.45 1055.4 1450.45 1068.33C1449.3 1072.04 1448.09 1077.19 1445.32 1080L1442.64 1080C1443.09 1079.45 1443.49 1078.88 1443.84 1078.26C1446.15 1074.16 1445.79 1064.59 1446.94 1059.6C1450.24 1045.37 1453.77 1031.21 1454.57 1016.56C1455.17 1005.65 1453.62 995.362 1452.4 984.568C1450.11 964.442 1446.78 942.791 1445.48 922.756C1444.47 907.137 1447.31 882.3 1442.75 868.264C1445.14 862.702 1445.49 857.825 1443.54 852.107Z"/>
	<path fill="#FEF4EB" d="M1237.6 527.801C1244.02 526.426 1286.47 546.235 1293.58 550.863C1300.3 555.236 1312.12 563.353 1314.02 571.403C1314.17 572.038 1314.14 572.108 1314.13 572.669C1317.6 576.222 1318.54 578.989 1318.46 583.956C1318.32 592.545 1314.06 603.863 1307.61 609.716C1306.79 610.462 1305.94 611.107 1305.01 611.711C1310.8 610.123 1322.57 608.04 1325.84 602.478C1326.16 601.943 1326.38 601.384 1326.59 600.805C1327.13 601.076 1327.74 601.398 1328.2 601.789C1334.04 606.759 1339.65 621.59 1347.14 628.312C1352.03 632.704 1366.52 639.032 1368.46 644.738C1369.79 648.622 1367.81 653.505 1365.83 656.806C1364.15 659.629 1362.53 661.971 1359.79 663.831C1365.7 668.064 1370.43 677.285 1371.73 684.39C1372.09 686.343 1372.06 688.293 1371.57 690.215C1372.18 694.124 1369.62 697.565 1367.65 700.763C1370.04 702.595 1372.18 704.087 1372.71 707.281C1372.86 708.197 1372.87 709.102 1372.9 710.026C1372.94 710.987 1372.87 710.585 1373.32 711.531C1375.38 713.566 1375.56 715.952 1375.61 718.702C1375.77 727.774 1369.48 740.233 1376.72 747.761C1379.39 750.536 1383.35 751.721 1385.66 754.897C1386.98 748.912 1379.97 733.744 1378.85 726.59C1384.44 728.624 1386.29 733.638 1388.64 738.701C1396.76 756.235 1400.03 759.754 1412.11 774.874C1414.77 778.196 1418.29 781.396 1420.6 784.897C1423.47 789.251 1425.07 794.735 1427.43 799.427C1435.92 816.365 1445.25 832.516 1443.54 852.107C1445.49 857.825 1445.14 862.702 1442.75 868.264C1447.31 882.3 1444.47 907.137 1445.48 922.756C1446.78 942.791 1450.11 964.442 1452.4 984.568C1453.62 995.362 1455.17 1005.65 1454.57 1016.56C1453.77 1031.21 1450.24 1045.37 1446.94 1059.6C1445.79 1064.59 1446.15 1074.16 1443.84 1078.26C1443.49 1078.88 1443.09 1079.45 1442.64 1080L1271.78 1080L1266.13 1080L1203.55 1080C1214.75 1071.84 1226.44 1051.35 1233.03 1039.22C1236.98 1031.95 1240.52 1024.42 1242.44 1016.33C1245.12 1005 1244.44 992.787 1245.76 981.226C1246.9 971.272 1249.53 961.487 1250.34 951.494C1250.55 948.862 1250.36 946.492 1249.61 943.963C1242.47 944.158 1235.3 943.56 1228.61 940.841C1210.44 933.45 1204.29 914.956 1194.1 899.982C1189.28 892.884 1182.9 886.626 1179.6 878.575C1177.81 874.196 1177.12 869.628 1176.94 864.918C1176.3 848.204 1183.42 832.92 1184.09 816.64C1184.57 804.863 1178.88 793.574 1179.84 782.156C1180.84 770.176 1194.57 763.436 1195.98 750.252C1197.05 740.239 1196.94 729.836 1197.66 719.747Q1200.6 681.107 1203.06 642.434C1204.47 618.036 1205 593.194 1211.15 569.408C1214.64 555.918 1222.21 546.391 1231.21 536.213C1233.36 533.787 1236.24 531.212 1237.45 528.213C1237.5 528.077 1237.55 527.938 1237.6 527.801ZM1266.13 1080L1271.78 1080C1272.38 1079.57 1272.62 1079.44 1273.13 1078.96C1275.98 1076.28 1298.01 1038.93 1300.21 1033.9C1300.94 1032.24 1300.98 1030.35 1300.98 1028.58C1297.29 1033.57 1292.08 1037.3 1288.56 1042.67C1280.58 1054.84 1276.55 1069.46 1266.13 1080Z"/>
	<path fill="#4B4571" d="M1251.34 273.843C1257.09 260.736 1258.67 247.201 1261.72 233.361C1267.93 205.185 1280.34 174.927 1298.7 152.436C1323.97 121.487 1386 94.1243 1425.27 90.3109C1434 89.4631 1443.25 89.3572 1451.9 90.9227C1479.01 95.8287 1512.6 115.08 1533.69 132.533C1551.64 147.385 1576.29 176.991 1578.55 200.77C1588.85 209.711 1615.53 328.455 1621.07 348.656C1626.89 369.841 1634.03 390.621 1639.25 411.978C1640.44 416.847 1642.45 422.593 1642.79 427.576C1642.88 428.966 1642.54 430.077 1642.18 431.395L1641.6 428.208L1640.29 427.483C1635.41 434.977 1637.98 453.728 1632.04 459.409C1634.79 465.908 1629.82 478.736 1629.73 486.176C1629.59 497.128 1633.34 510.016 1636.7 520.341C1638.22 544.944 1641.21 561.885 1623.05 582.445C1611.43 595.593 1596.23 603.507 1578.75 605.358C1576.44 599.594 1564.48 591.039 1558.91 588.47C1558.21 588.148 1557.55 587.936 1556.81 587.723C1556.68 587.798 1556.54 587.876 1556.41 587.948C1550.5 591.128 1542.85 591.501 1537.45 595.572C1527.3 603.233 1527.85 614.563 1514.87 621.351C1515.74 623.638 1516.96 627.567 1516.01 629.987C1513.18 637.169 1502.72 633.753 1507.48 647.211C1509.39 652.628 1512.49 656.968 1516.86 660.596C1517.42 661.059 1517.23 660.864 1517.52 661.613C1515.98 665.3 1514.56 667.681 1511.23 670.078C1519.5 675.003 1539.39 702.86 1541.27 712.152C1541.65 714.051 1541.52 716.183 1541.46 718.113C1542.92 720.963 1547.6 724.788 1548.01 727.335C1548.84 731.758 1548.88 739.238 1546.04 743.018C1545.61 743.592 1545.32 743.796 1544.76 744.313C1547.54 750.024 1548.74 754.427 1546.59 760.612C1538.17 784.864 1488.17 809.836 1468.04 827.748C1460.26 834.669 1454.97 849.256 1446.12 853.914C1445.45 853.217 1444.35 852.656 1443.54 852.107C1445.25 832.516 1435.92 816.365 1427.43 799.427C1425.07 794.735 1423.47 789.251 1420.6 784.897C1418.29 781.396 1414.77 778.196 1412.11 774.874C1400.03 759.754 1396.76 756.235 1388.64 738.701C1386.29 733.638 1384.44 728.624 1378.85 726.59C1379.97 733.744 1386.98 748.912 1385.66 754.897C1383.35 751.721 1379.39 750.536 1376.72 747.761C1369.48 740.233 1375.77 727.774 1375.61 718.702C1375.56 715.952 1375.38 713.566 1373.32 711.531C1372.87 710.585 1372.94 710.987 1372.9 710.026C1372.87 709.102 1372.86 708.197 1372.71 707.281C1372.18 704.087 1370.04 702.595 1367.65 700.763C1369.62 697.565 1372.18 694.124 1371.57 690.215C1372.06 688.293 1372.09 686.343 1371.73 684.39C1370.43 677.285 1365.7 668.064 1359.79 663.831C1362.53 661.971 1364.15 659.629 1365.83 656.806C1367.81 653.505 1369.79 648.622 1368.46 644.738C1366.52 639.032 1352.03 632.704 1347.14 628.312C1339.65 621.59 1334.04 606.759 1328.2 601.789C1327.74 601.398 1327.13 601.076 1326.59 600.805C1326.38 601.384 1326.16 601.943 1325.84 602.478C1322.57 608.04 1310.8 610.123 1305.01 611.711C1305.94 611.107 1306.79 610.462 1307.61 609.716C1314.06 603.863 1318.32 592.545 1318.46 583.956C1318.54 578.989 1317.6 576.222 1314.13 572.669C1314.14 572.108 1314.17 572.038 1314.02 571.403C1312.12 563.353 1300.3 555.236 1293.58 550.863C1286.47 546.235 1244.02 526.426 1237.6 527.801L1237.78 525.61C1226.98 506.646 1223.18 483.796 1208.28 467.121C1208.43 463.813 1208.36 461.542 1207.15 458.392C1207.63 457.978 1208.15 457.488 1208.48 456.952C1210.35 453.966 1214.75 426.233 1216.14 420.421C1220.64 401.739 1253.93 282.443 1251.34 273.843Z"/>
	<path fill="#393A59" d="M1249.96 373.559L1251.92 374.122C1253.44 377.204 1253.36 381.622 1253.62 385.032C1254.65 398.432 1254.28 411.911 1255.13 425.325C1255.99 439.052 1258.1 452.703 1259.38 466.398C1259.75 470.379 1260.76 475.587 1259.8 479.469C1257.78 479.545 1255.4 477.224 1253.71 476.056C1254.57 470.78 1241.75 454.999 1241.07 446.039C1239.44 424.306 1253.88 391.145 1249.96 373.559Z"/>
	<path fill="#393A59" d="M1330.57 589.362C1336.72 593.407 1340.7 602.84 1344.98 608.762C1358.46 627.406 1374.49 641.701 1379.38 665.204C1381.25 674.163 1383.65 701.254 1378.94 708.791C1377.53 711.046 1376.41 711.088 1373.89 711.468C1373.7 711.497 1373.51 711.51 1373.32 711.531C1372.87 710.585 1372.94 710.987 1372.9 710.026C1372.87 709.102 1372.86 708.197 1372.71 707.281C1372.18 704.087 1370.04 702.595 1367.65 700.763C1369.62 697.565 1372.18 694.124 1371.57 690.215C1372.06 688.293 1372.09 686.343 1371.73 684.39C1370.43 677.285 1365.7 668.064 1359.79 663.831C1362.53 661.971 1364.15 659.629 1365.83 656.806C1367.81 653.505 1369.79 648.622 1368.46 644.738C1366.52 639.032 1352.03 632.704 1347.14 628.312C1339.65 621.59 1334.04 606.759 1328.2 601.789C1327.74 601.398 1327.13 601.076 1326.59 600.805C1328.93 597.099 1330.47 593.846 1330.57 589.362Z"/>
	<path fill="#393A59" d="M1578.55 200.77C1588.85 209.711 1615.53 328.455 1621.07 348.656C1626.89 369.841 1634.03 390.621 1639.25 411.978C1640.44 416.847 1642.45 422.593 1642.79 427.576C1642.88 428.966 1642.54 430.077 1642.18 431.395L1641.6 428.208L1640.29 427.483C1635.41 434.977 1637.98 453.728 1632.04 459.409C1633.85 454.97 1633.9 448.468 1634.13 443.667C1636.43 393.867 1612.34 346.108 1599.78 298.745C1593.67 275.678 1590.44 251.607 1584.83 228.34C1583.14 221.316 1576.17 207.478 1578.55 200.77Z"/>
	<path fill="#393A59" d="M1600.73 326.714L1602.13 327.365C1606.06 334.027 1607.96 342.832 1610.55 350.164C1618.87 373.741 1629.74 397.51 1631.12 422.808C1631.61 432.018 1630.85 458.526 1624.62 465.476C1625.07 467.29 1625.66 468.77 1624.81 470.559C1622.07 468.563 1620.47 460.182 1619.57 456.929C1613.65 435.545 1610.56 414.345 1608.42 392.289C1606.95 377.112 1605.63 339.237 1600.73 326.714Z"/>
	<path fill="#393A59" d="M1251.34 273.843L1254.24 274.677C1257.54 281.094 1255.27 292.783 1254.71 299.886C1253.26 318.336 1251.61 336.597 1248.66 354.877C1247.05 364.83 1245.45 374.829 1243.34 384.688C1238.86 405.603 1230.18 430.063 1235.26 451.415C1239.23 468.081 1251.17 471.327 1258.73 484.341C1265.53 496.06 1267.32 510.187 1275.82 521.041C1285.12 532.9 1321.68 554.318 1317.53 570.545C1316.35 571.786 1315.76 572.171 1314.13 572.669C1314.14 572.108 1314.17 572.038 1314.02 571.403C1312.12 563.353 1300.3 555.236 1293.58 550.863C1286.47 546.235 1244.02 526.426 1237.6 527.801L1237.78 525.61C1226.98 506.646 1223.18 483.796 1208.28 467.121C1208.43 463.813 1208.36 461.542 1207.15 458.392C1207.63 457.978 1208.15 457.488 1208.48 456.952C1210.35 453.966 1214.75 426.233 1216.14 420.421C1220.64 401.739 1253.93 282.443 1251.34 273.843Z"/>
	<path fill="#393A59" d="M1474.89 654.575Q1475.54 653.834 1476.1 653.019C1482.45 643.824 1490.39 616.63 1488.27 605.48C1491.84 613.181 1493.17 630.223 1490.04 637.937C1489.48 639.304 1488.69 640.306 1487.65 641.33C1490.44 642.698 1490.97 643.009 1492 645.996C1497.51 661.967 1508.68 706.414 1500.26 721.121C1499.04 723.25 1498.17 723.42 1495.97 724.066L1493.99 722.834C1494.25 725.925 1494.37 727.03 1493.05 729.948C1490.59 732.14 1487.97 733.174 1484.96 734.39C1486.75 740.35 1487.91 751.202 1484.72 756.803C1483.86 758.323 1482.43 759.169 1480.99 760.05L1483.88 761.549C1486.75 765.459 1486.01 771.088 1487.92 775.492C1490.89 782.352 1500.27 787.336 1500.42 795.179C1500.48 794.99 1500.54 794.802 1500.59 794.612C1500.68 794.295 1500.75 793.973 1500.83 793.656C1503.04 785.558 1495.38 759.394 1497.48 744.813C1499.8 728.702 1514.27 698.192 1510.88 683.557C1523 694.694 1529.6 719.264 1531.54 735.167C1532.66 744.389 1532.96 754.868 1527.01 762.517C1527.22 762.356 1527.43 762.198 1527.63 762.034C1527.98 761.763 1528.3 761.472 1528.65 761.212C1534.97 756.513 1537.64 748.885 1543.49 743.751L1544.76 744.313C1547.54 750.024 1548.74 754.427 1546.59 760.612C1538.17 784.864 1488.17 809.836 1468.04 827.748C1460.26 834.669 1454.97 849.256 1446.12 853.914C1445.45 853.217 1444.35 852.656 1443.54 852.107C1445.25 832.516 1435.92 816.365 1427.43 799.427C1425.07 794.735 1423.47 789.251 1420.6 784.897C1418.29 781.396 1414.77 778.196 1412.11 774.874C1400.03 759.754 1396.76 756.235 1388.64 738.701C1386.29 733.638 1384.44 728.624 1378.85 726.59C1380.25 722.233 1379 718.421 1380.03 714.226C1381.81 706.911 1389.4 699.802 1393.05 693.107C1395.82 688.032 1398.15 681.463 1396.49 675.718C1400.03 678.668 1401.41 681.999 1403 686.222C1406.69 696.038 1414.31 723.487 1409.95 733.046C1417.55 721.811 1418.01 703.232 1418.43 690.015C1419.04 671.006 1419.72 630.892 1405.94 616.152C1413.32 621.25 1416.66 627.963 1419.46 636.386C1423.25 647.761 1425.76 662.305 1420.23 673.344C1421.52 672.555 1422.59 671.762 1423.59 670.614C1429.42 663.919 1431.82 652.589 1431.37 643.97C1432.81 636.727 1433.79 627.033 1429.48 620.563C1445.72 623.981 1445.93 655.555 1453.01 660.593C1455.65 662.474 1459.1 662.366 1462.17 661.865C1467.03 661.071 1471.93 658.631 1474.89 654.575Z"/>
	<path fill="#E1CDD3" d="M1474.89 654.575Q1475.54 653.834 1476.1 653.019C1482.45 643.824 1490.39 616.63 1488.27 605.48C1491.84 613.181 1493.17 630.223 1490.04 637.937C1489.48 639.304 1488.69 640.306 1487.65 641.33C1490.44 642.698 1490.97 643.009 1492 645.996C1497.51 661.967 1508.68 706.414 1500.26 721.121C1499.04 723.25 1498.17 723.42 1495.97 724.066L1493.99 722.834C1494.25 725.925 1494.37 727.03 1493.05 729.948C1490.59 732.14 1487.97 733.174 1484.96 734.39C1486.75 740.35 1487.91 751.202 1484.72 756.803C1483.86 758.323 1482.43 759.169 1480.99 760.05C1478.31 762.515 1473.42 763.436 1470.03 764.404C1471.46 761 1471.88 692.752 1470.69 685.816C1470.34 683.799 1470.31 683.328 1468.63 682.113C1456.99 697.223 1473.65 748.344 1463.72 763.397C1463.61 763.558 1463.49 763.711 1463.38 763.868C1460.2 761.342 1455.21 761.486 1451.63 759.376C1444.96 755.443 1449.93 741.65 1447.82 735.176C1447.75 734.968 1447.67 734.766 1447.59 734.561C1446.42 731.383 1442.6 729.884 1439.79 728.404C1443.71 717.197 1441.6 704.704 1444.08 693.154C1446.05 684.045 1452.77 676.103 1454.22 666.939L1453.99 666.372C1445.73 661.313 1440.11 645.896 1431.37 643.97C1432.81 636.727 1433.79 627.033 1429.48 620.563C1445.72 623.981 1445.93 655.555 1453.01 660.593C1455.65 662.474 1459.1 662.366 1462.17 661.865C1467.03 661.071 1471.93 658.631 1474.89 654.575Z"/>
	<path fill="#393A59" d="M1487.65 641.33C1490.44 642.698 1490.97 643.009 1492 645.996C1497.51 661.967 1508.68 706.414 1500.26 721.121C1499.04 723.25 1498.17 723.42 1495.97 724.066L1493.99 722.834C1497.02 717.063 1495.03 705.799 1493.58 699.467C1490.34 685.356 1483.98 673.583 1471.53 665.788C1476.7 661.604 1482.08 655.844 1485.4 650.057C1486.9 647.441 1488.48 644.396 1487.65 641.33Z"/>
	<path fill="#FEF4EB" d="M1417.63 317.763C1431.99 325.752 1452.48 351.914 1459.96 366.653L1461.21 366.41C1461.59 365.534 1461.9 364.652 1462.1 363.714C1465.17 349.472 1455.66 301.095 1453.88 283.67C1452.5 270.186 1452.77 256.284 1450.64 242.919C1450.17 239.943 1448.99 237.693 1447.39 235.171C1455.69 243.185 1458.09 257.674 1461.08 268.585C1465.26 283.895 1482.36 343.78 1475.5 355.817C1482.79 351.728 1486.9 344.831 1490.07 337.28C1493.14 329.978 1495.97 320.763 1492.86 313.121C1497.71 320.886 1497.72 327.825 1496.08 336.654C1498.77 334.146 1499.99 331.38 1501.21 327.958C1505.96 314.605 1508.65 283.851 1502.69 271.057C1509.71 280.314 1511.43 293.863 1513.16 305.125C1514.91 316.472 1518.99 337.955 1511.79 347.788C1521.35 341.627 1525.52 331.764 1528.96 321.324C1531.68 313.051 1535.89 299.674 1531.79 291.569C1533.11 293.545 1534.66 295.707 1535.27 298.033C1538.41 310.079 1539.47 336.559 1533.29 347.374C1533.71 347.116 1534.12 346.856 1534.52 346.578L1535.11 346.166C1536.17 345.432 1537.2 344.688 1538.07 343.714C1545.46 335.363 1548.84 320.815 1548.42 309.951C1548.92 310.606 1549.35 311.261 1549.76 311.975C1558.98 328.018 1554.59 366.595 1550.07 384.075C1546.72 397.054 1541.08 412.967 1529.04 420.051C1532.65 418.658 1536.07 417.184 1539.3 415.017C1544.13 411.772 1549.62 407.064 1550.83 401.063C1552.95 414.778 1546.56 439.331 1542.21 452.674C1534.55 476.192 1516.71 494.921 1494.91 506.004C1495.03 506.343 1495.16 506.679 1495.27 507.021C1496.6 511.163 1497.33 517.321 1495.19 521.272C1504.16 523.405 1511.08 524.725 1520.28 523.069C1520.31 523.885 1520.34 523.98 1520.3 524.723C1519.38 539.951 1499.99 562.801 1496.16 579.273C1494.67 585.671 1492.98 601.467 1488.27 605.48C1490.39 616.63 1482.45 643.824 1476.1 653.019Q1475.54 653.834 1474.89 654.575C1471.93 658.631 1467.03 661.071 1462.17 661.865C1459.1 662.366 1455.65 662.474 1453.01 660.593C1445.93 655.555 1445.72 623.981 1429.48 620.563C1432.06 614.828 1428.59 605.289 1426.48 599.738C1419.12 580.378 1388.42 537.411 1370.66 529.479C1378.66 530.56 1389.66 533.285 1397.34 530.368C1399.66 529.489 1400.83 528.323 1401.81 526.083C1403.41 513.892 1380.01 506.046 1371.51 501.605C1365.17 498.289 1358.5 494.326 1352.95 489.788C1346.79 484.747 1341.35 476.587 1337.43 469.678C1335.16 465.692 1331.35 458.902 1332.63 454.209C1333.84 453.975 1334.97 453.787 1336.21 453.756L1337.27 453.736C1337.22 453.164 1337.25 452.976 1336.96 452.387C1333.98 446.163 1317.87 431.637 1311.39 428.477C1316.18 429.917 1320.49 432.571 1324.98 434.762C1337.29 440.778 1347.77 443.603 1361.41 444.941C1355.79 437.238 1332.78 430.366 1321.82 415.858C1315.69 407.745 1310.45 398.443 1306.37 389.137C1301.64 378.344 1299 363.189 1290.8 354.715C1301.79 361.905 1307.1 377.101 1316.61 386.666L1315.75 385.257L1316.85 385.89C1316.25 383.598 1314.99 380.533 1315.75 378.239C1320.32 381.548 1326.24 385.436 1328.17 390.982C1328.17 390.401 1328.13 389.821 1328.12 389.241C1328.02 379.736 1320.57 371.214 1316.76 362.79C1314.9 358.666 1313.66 354.105 1312.44 349.752C1310.09 341.37 1305.26 309.461 1302.2 305.347C1302.55 305.677 1302.9 306.009 1303.23 306.358L1303.7 306.866C1311.86 315.475 1313.26 331.441 1319.17 341.96C1323.94 350.468 1336.19 359.24 1337.79 368.778C1338.04 366.961 1338.31 365.093 1338.29 363.255C1338.22 355.144 1334.62 346.26 1328.72 340.783C1333.58 343.222 1337.34 346.412 1341.15 350.273C1344.25 353.421 1348.55 357.708 1348.54 362.387C1348.59 362.135 1348.63 361.882 1348.68 361.631C1350.98 350.661 1341.68 334.093 1339.35 322.82C1333.9 296.532 1337.22 271.174 1335.84 244.829C1335.73 242.702 1335.23 240.934 1334.24 239.054C1335.69 241.187 1337.04 243.196 1337.6 245.761C1339.1 252.55 1339.01 260.183 1339.88 267.132C1341.44 279.486 1344.58 292.47 1348.36 304.354C1352.04 315.903 1359.96 324.547 1364.63 335.379C1364.71 335.559 1364.78 335.741 1364.85 335.922C1365.07 328.934 1364.27 324.297 1359.49 319.014C1365.82 322.567 1370.62 331.666 1375.93 336.941C1378.99 339.973 1383.74 341.834 1385.58 345.759C1386.51 340.402 1372.41 315.257 1370.38 306.152C1365.57 284.457 1375.22 259.703 1371.52 242.541C1371.68 242.68 1371.85 242.803 1371.99 242.957C1372.93 243.989 1373.48 245.327 1373.98 246.617C1376.93 254.325 1376.82 263.695 1377.97 271.871C1378.99 279.087 1381.37 286.64 1383.96 293.449C1387.34 302.302 1406.16 329.639 1406.2 333.739C1406.3 333.142 1406.41 332.544 1406.49 331.943L1406.59 331.131C1406.71 330.225 1406.81 329.377 1406.82 328.459C1406.88 319.59 1401.73 308.345 1395.4 302.325C1397.53 303.569 1399.7 304.9 1401.39 306.717C1407.66 313.449 1412.89 321.432 1418.78 328.53C1422.56 333.082 1427.17 336.781 1430.27 341.872C1430.3 340.543 1430.33 339.159 1430.17 337.835C1429.21 330.01 1423.53 322.613 1417.63 317.763Z"/>
</svg>